<svg width="826" height="823" viewBox="0 0 619.5 617.25" xmlns="http://www.w3.org/2000/svg" xmlns:xlink="http://www.w3.org/1999/xlink">
<g id="graph0" class="graph" transform="translate(63.8235261207312,501.8657952101314) scale(0.4594793419988144)">
<title>RealtimeAppLogic</title>
<polygon fill="white" stroke="none" points="-4,4 -4,-966.13 404.2,-966.13 404.2,4 -4,4"/>
<!-- start -->
<g id="node1" class="node">
<title>start</title>
<ellipse fill="rgb(255, 255, 255)" stroke="rgb(0, 0, 0)" cx="200.31" cy="-944.13" rx="66.03" ry="18"/>
<text text-anchor="middle" x="200.31" y="-940.53" font-family="Arial" font-size="12">Start Application</text>
</g>
<!-- init -->
<g id="node2" class="node">
<title>init</title>
<ellipse fill="rgb(255, 255, 255)" stroke="rgb(0, 0, 0)" cx="200.31" cy="-855.11" rx="96.2" ry="26.02"/>
<text text-anchor="middle" x="200.31" y="-858.71" font-family="Arial" font-size="12">Initialize Model, Scaler</text>
<text text-anchor="middle" x="200.31" y="-844.31" font-family="Arial" font-size="12">&amp; MQTT Client</text>
</g>
<!-- start&#45;&gt;init -->
<g id="edge1" class="edge">
<title>start-&gt;init</title>
<path fill="none" stroke="rgb(0, 0, 0)" d="M200.31,-925.94C200.31,-916.43 200.31,-904.23 200.31,-892.7"/>
<polygon fill="black" stroke="black" points="203.81,-893.03 200.31,-883.03 196.81,-893.03 203.81,-893.03"/>
</g>
<!-- record_audio -->
<g id="node3" class="node">
<title>record_audio</title>
<ellipse fill="rgb(255, 255, 255)" stroke="rgb(0, 0, 0)" cx="200.31" cy="-766.09" rx="82.22" ry="18"/>
<text text-anchor="middle" x="200.31" y="-762.49" font-family="Arial" font-size="12">Record 5s Audio Clip</text>
</g>
<!-- init&#45;&gt;record_audio -->
<g id="edge2" class="edge">
<title>init-&gt;record_audio</title>
<path fill="none" stroke="rgb(0, 0, 0)" d="M200.31,-828.94C200.31,-818.58 200.31,-806.52 200.31,-795.82"/>
<polygon fill="black" stroke="black" points="203.81,-795.99 200.31,-785.99 196.81,-795.99 203.81,-795.99"/>
</g>
<!-- rms_check -->
<g id="node4" class="node">
<title>rms_check</title>
<ellipse fill="rgb(255, 255, 255)" stroke="rgb(0, 0, 0)" cx="110.31" cy="-662.09" rx="100.74" ry="18"/>
<text text-anchor="middle" x="110.31" y="-658.49" font-family="Arial" font-size="12">RMS Energy &gt; Threshold?</text>
</g>
<!-- record_audio&#45;&gt;rms_check -->
<g id="edge3" class="edge">
<title>record_audio-&gt;rms_check</title>
<path fill="none" stroke="rgb(0, 0, 0)" d="M142.78,-752.92C128.88,-747.14 115.65,-738.62 107.31,-726.09 100.63,-716.03 100.26,-702.96 102,-691.32"/>
<polygon fill="black" stroke="black" points="105.37,-692.32 103.99,-681.82 98.52,-690.89 105.37,-692.32"/>
</g>
<!-- rms_check&#45;&gt;record_audio -->
<g id="edge4" class="edge">
<title>rms_check-&gt;record_audio</title>
<path fill="none" stroke="rgb(0, 0, 0)" d="M113.87,-680.46C117.38,-694.09 123.87,-712.91 135.04,-726.09 140.74,-732.81 147.91,-738.68 155.4,-743.69"/>
<polygon fill="black" stroke="black" points="153.32,-746.52 163.67,-748.77 156.98,-740.55 153.32,-746.52"/>
<text text-anchor="middle" x="188.68" y="-717.09" font-family="Arial" font-size="10"> No</text>
<text text-anchor="middle" x="188.68" y="-705.09" font-family="Arial" font-size="10">(Silence Detected, Skip)</text>
</g>
<!-- extract_features -->
<g id="node5" class="node">
<title>extract_features</title>
<ellipse fill="rgb(255, 255, 255)" stroke="rgb(0, 0, 0)" cx="110.31" cy="-570.09" rx="110.31" ry="18"/>
<text text-anchor="middle" x="110.31" y="-566.49" font-family="Arial" font-size="12">Extract Features &amp; Normalize</text>
</g>
<!-- rms_check&#45;&gt;extract_features -->
<g id="edge5" class="edge">
<title>rms_check-&gt;extract_features</title>
<path fill="none" stroke="rgb(0, 0, 0)" d="M110.31,-643.73C110.31,-631.28 110.31,-614.22 110.31,-599.76"/>
<polygon fill="black" stroke="black" points="113.81,-599.9 110.31,-589.9 106.81,-599.9 113.81,-599.9"/>
<text text-anchor="middle" x="120.32" y="-613.09" font-family="Arial" font-size="10"> Yes</text>
</g>
<!-- inference -->
<g id="node6" class="node">
<title>inference</title>
<ellipse fill="rgb(255, 255, 255)" stroke="rgb(0, 0, 0)" cx="121.31" cy="-466.09" rx="95.41" ry="18"/>
<text text-anchor="middle" x="121.31" y="-462.49" font-family="Arial" font-size="12">Perform TFLite Inference</text>
</g>
<!-- extract_features&#45;&gt;inference -->
<g id="edge6" class="edge">
<title>extract_features-&gt;inference</title>
<path fill="none" stroke="rgb(0, 0, 0)" d="M112.18,-551.78C113.83,-536.47 116.27,-513.82 118.22,-495.8"/>
<polygon fill="black" stroke="black" points="121.68,-496.3 119.28,-485.98 114.72,-495.55 121.68,-496.3"/>
</g>
<!-- update_window -->
<g id="node7" class="node">
<title>update_window</title>
<ellipse fill="rgb(255, 255, 255)" stroke="rgb(0, 0, 0)" cx="139.31" cy="-377.06" rx="75.94" ry="26.02"/>
<text text-anchor="middle" x="139.31" y="-380.66" font-family="Arial" font-size="12">Add Prediction to</text>
<text text-anchor="middle" x="139.31" y="-366.26" font-family="Arial" font-size="12">Sliding Window</text>
</g>
<!-- inference&#45;&gt;update_window -->
<g id="edge7" class="edge">
<title>inference-&gt;update_window</title>
<path fill="none" stroke="rgb(0, 0, 0)" d="M124.87,-447.89C126.84,-438.38 129.36,-426.19 131.74,-414.65"/>
<polygon fill="black" stroke="black" points="135.15,-415.45 133.75,-404.95 128.3,-414.03 135.15,-415.45"/>
</g>
<!-- window_check -->
<g id="node8" class="node">
<title>window_check</title>
<ellipse fill="rgb(255, 255, 255)" stroke="rgb(0, 0, 0)" cx="221.31" cy="-280.02" rx="114.6" ry="26.02"/>
<text text-anchor="middle" x="221.31" y="-283.62" font-family="Arial" font-size="12">Window Full &amp;</text>
<text text-anchor="middle" x="221.31" y="-269.22" font-family="Arial" font-size="12">All Predictions Anomalous?</text>
</g>
<!-- update_window&#45;&gt;window_check -->
<g id="edge8" class="edge">
<title>update_window-&gt;window_check</title>
<path fill="none" stroke="rgb(0, 0, 0)" d="M160.43,-351.59C170.21,-340.26 181.97,-326.62 192.54,-314.37"/>
<polygon fill="black" stroke="black" points="195.11,-316.75 198.99,-306.89 189.81,-312.18 195.11,-316.75"/>
</g>
<!-- window_check&#45;&gt;record_audio -->
<g id="edge9" class="edge">
<title>window_check-&gt;record_audio</title>
<path fill="none" stroke="rgb(0, 0, 0)" d="M239.55,-305.87C251.27,-324.29 264.31,-350.53 264.31,-376.06 264.31,-663.09 264.31,-663.09 264.31,-663.09 264.31,-692.33 261.21,-701.54 245.31,-726.09 241.87,-731.4 237.5,-736.4 232.84,-740.94"/>
<polygon fill="black" stroke="black" points="230.55,-738.3 225.41,-747.57 235.21,-743.52 230.55,-738.3"/>
<text text-anchor="middle" x="312.39" y="-521.09" font-family="Arial" font-size="10"> No</text>
<text text-anchor="middle" x="312.39" y="-509.09" font-family="Arial" font-size="10">(Continue Monitoring)</text>
</g>
<!-- build_payload -->
<g id="node9" class="node">
<title>build_payload</title>
<ellipse fill="rgb(255, 255, 255)" stroke="rgb(0, 0, 0)" cx="236.31" cy="-180" rx="95.41" ry="18"/>
<text text-anchor="middle" x="236.31" y="-176.4" font-family="Arial" font-size="12">Construct JSON Payload</text>
</g>
<!-- window_check&#45;&gt;build_payload -->
<g id="edge10" class="edge">
<title>window_check-&gt;build_payload</title>
<path fill="none" stroke="rgb(0, 0, 0)" d="M225.21,-253.52C227.27,-240.1 229.8,-223.59 231.92,-209.71"/>
<polygon fill="black" stroke="black" points="235.38,-210.25 233.43,-199.84 228.46,-209.2 235.38,-210.25"/>
<text text-anchor="middle" x="240.16" y="-223" font-family="Arial" font-size="10"> Yes</text>
</g>
<!-- publish_mqtt -->
<g id="node10" class="node">
<title>publish_mqtt</title>
<ellipse fill="rgb(255, 255, 255)" stroke="rgb(0, 0, 0)" cx="246.31" cy="-99" rx="89.01" ry="18"/>
<text text-anchor="middle" x="246.31" y="-95.4" font-family="Arial" font-size="12">Publish Alert via MQTT</text>
</g>
<!-- build_payload&#45;&gt;publish_mqtt -->
<g id="edge11" class="edge">
<title>build_payload-&gt;publish_mqtt</title>
<path fill="none" stroke="rgb(0, 0, 0)" d="M238.48,-161.86C239.71,-152.19 241.27,-139.87 242.67,-128.76"/>
<polygon fill="black" stroke="black" points="246.14,-129.24 243.92,-118.88 239.19,-128.36 246.14,-129.24"/>
</g>
<!-- clear_window -->
<g id="node11" class="node">
<title>clear_window</title>
<ellipse fill="rgb(255, 255, 255)" stroke="rgb(0, 0, 0)" cx="313.31" cy="-18" rx="86.89" ry="18"/>
<text text-anchor="middle" x="313.31" y="-14.4" font-family="Arial" font-size="12">Clear Window &amp; Delay</text>
</g>
<!-- publish_mqtt&#45;&gt;clear_window -->
<g id="edge12" class="edge">
<title>publish_mqtt-&gt;clear_window</title>
<path fill="none" stroke="rgb(0, 0, 0)" d="M260.85,-80.86C269.81,-70.3 281.46,-56.56 291.5,-44.71"/>
<polygon fill="black" stroke="black" points="294.03,-47.15 297.82,-37.26 288.69,-42.63 294.03,-47.15"/>
</g>
<!-- clear_window&#45;&gt;record_audio -->
<g id="edge13" class="edge">
<title>clear_window-&gt;record_audio</title>
<path fill="none" stroke="rgb(0, 0, 0)" d="M339.41,-35.39C358.22,-49.44 380.31,-71.56 380.31,-98 380.31,-663.09 380.31,-663.09 380.31,-663.09 380.31,-713.51 326.19,-739.3 277.29,-752.32"/>
<polygon fill="black" stroke="black" points="276.64,-748.87 267.78,-754.69 278.33,-755.67 276.64,-748.87"/>
</g>
</g>
</svg>